<mxfile host="app.diagrams.net" agent="Mozilla/5.0 (Windows NT 10.0; Win64; x64) AppleWebKit/537.36 (KHTML, like Gecko) Chrome/134.0.0.0 Safari/537.36" version="26.2.5">
  <diagram name="Page-1" id="kohk_zdC75T-vjo-MDrF">
    <mxGraphModel dx="2132" dy="669" grid="1" gridSize="10" guides="1" tooltips="1" connect="1" arrows="1" fold="1" page="1" pageScale="1" pageWidth="827" pageHeight="1169" math="0" shadow="0">
      <root>
        <mxCell id="0" />
        <mxCell id="1" parent="0" />
        <mxCell id="4XorLMzXXs-o0dV5hsTX-19" value="" style="childLayout=tableLayout;recursiveResize=0;shadow=0;fillColor=none;" vertex="1" parent="1">
          <mxGeometry x="80" y="310" width="540" height="50" as="geometry" />
        </mxCell>
        <mxCell id="4XorLMzXXs-o0dV5hsTX-20" value="" style="shape=tableRow;horizontal=0;startSize=0;swimlaneHead=0;swimlaneBody=0;top=0;left=0;bottom=0;right=0;dropTarget=0;collapsible=0;recursiveResize=0;expand=0;fontStyle=0;fillColor=none;strokeColor=inherit;" vertex="1" parent="4XorLMzXXs-o0dV5hsTX-19">
          <mxGeometry width="540" height="50" as="geometry" />
        </mxCell>
        <mxCell id="4XorLMzXXs-o0dV5hsTX-21" value="&lt;u&gt;Course Code&lt;/u&gt;" style="connectable=0;recursiveResize=0;strokeColor=inherit;fillColor=none;align=center;whiteSpace=wrap;html=1;" vertex="1" parent="4XorLMzXXs-o0dV5hsTX-20">
          <mxGeometry width="60" height="50" as="geometry">
            <mxRectangle width="60" height="50" as="alternateBounds" />
          </mxGeometry>
        </mxCell>
        <mxCell id="4XorLMzXXs-o0dV5hsTX-22" value="Course Name" style="connectable=0;recursiveResize=0;strokeColor=inherit;fillColor=none;align=center;whiteSpace=wrap;html=1;" vertex="1" parent="4XorLMzXXs-o0dV5hsTX-20">
          <mxGeometry x="60" width="60" height="50" as="geometry">
            <mxRectangle width="60" height="50" as="alternateBounds" />
          </mxGeometry>
        </mxCell>
        <mxCell id="4XorLMzXXs-o0dV5hsTX-23" value="Professor" style="connectable=0;recursiveResize=0;strokeColor=inherit;fillColor=none;align=center;whiteSpace=wrap;html=1;" vertex="1" parent="4XorLMzXXs-o0dV5hsTX-20">
          <mxGeometry x="120" width="60" height="50" as="geometry">
            <mxRectangle width="60" height="50" as="alternateBounds" />
          </mxGeometry>
        </mxCell>
        <mxCell id="4XorLMzXXs-o0dV5hsTX-24" value="TA" style="connectable=0;recursiveResize=0;strokeColor=inherit;fillColor=none;align=center;whiteSpace=wrap;html=1;" vertex="1" parent="4XorLMzXXs-o0dV5hsTX-20">
          <mxGeometry x="180" width="60" height="50" as="geometry">
            <mxRectangle width="60" height="50" as="alternateBounds" />
          </mxGeometry>
        </mxCell>
        <mxCell id="4XorLMzXXs-o0dV5hsTX-33" value="JTA" style="connectable=0;recursiveResize=0;strokeColor=inherit;fillColor=none;align=center;whiteSpace=wrap;html=1;" vertex="1" parent="4XorLMzXXs-o0dV5hsTX-20">
          <mxGeometry x="240" width="60" height="50" as="geometry">
            <mxRectangle width="60" height="50" as="alternateBounds" />
          </mxGeometry>
        </mxCell>
        <mxCell id="4XorLMzXXs-o0dV5hsTX-32" value="Lecture Room" style="connectable=0;recursiveResize=0;strokeColor=inherit;fillColor=none;align=center;whiteSpace=wrap;html=1;" vertex="1" parent="4XorLMzXXs-o0dV5hsTX-20">
          <mxGeometry x="300" width="60" height="50" as="geometry">
            <mxRectangle width="60" height="50" as="alternateBounds" />
          </mxGeometry>
        </mxCell>
        <mxCell id="4XorLMzXXs-o0dV5hsTX-31" value="Lecture Time" style="connectable=0;recursiveResize=0;strokeColor=inherit;fillColor=none;align=center;whiteSpace=wrap;html=1;" vertex="1" parent="4XorLMzXXs-o0dV5hsTX-20">
          <mxGeometry x="360" width="60" height="50" as="geometry">
            <mxRectangle width="60" height="50" as="alternateBounds" />
          </mxGeometry>
        </mxCell>
        <mxCell id="4XorLMzXXs-o0dV5hsTX-30" value="Tutorial Room" style="connectable=0;recursiveResize=0;strokeColor=inherit;fillColor=none;align=center;whiteSpace=wrap;html=1;" vertex="1" parent="4XorLMzXXs-o0dV5hsTX-20">
          <mxGeometry x="420" width="60" height="50" as="geometry">
            <mxRectangle width="60" height="50" as="alternateBounds" />
          </mxGeometry>
        </mxCell>
        <mxCell id="4XorLMzXXs-o0dV5hsTX-34" value="Tutorial Time" style="connectable=0;recursiveResize=0;strokeColor=inherit;fillColor=none;align=center;whiteSpace=wrap;html=1;" vertex="1" parent="4XorLMzXXs-o0dV5hsTX-20">
          <mxGeometry x="480" width="60" height="50" as="geometry">
            <mxRectangle width="60" height="50" as="alternateBounds" />
          </mxGeometry>
        </mxCell>
        <mxCell id="4XorLMzXXs-o0dV5hsTX-1" value="" style="childLayout=tableLayout;recursiveResize=0;shadow=0;fillColor=none;" vertex="1" parent="1">
          <mxGeometry x="80" y="190" width="360" height="50" as="geometry" />
        </mxCell>
        <mxCell id="4XorLMzXXs-o0dV5hsTX-2" value="" style="shape=tableRow;horizontal=0;startSize=0;swimlaneHead=0;swimlaneBody=0;top=0;left=0;bottom=0;right=0;dropTarget=0;collapsible=0;recursiveResize=0;expand=0;fontStyle=0;fillColor=none;strokeColor=inherit;" vertex="1" parent="4XorLMzXXs-o0dV5hsTX-1">
          <mxGeometry width="360" height="50" as="geometry" />
        </mxCell>
        <mxCell id="4XorLMzXXs-o0dV5hsTX-3" value="&lt;u&gt;ID&lt;/u&gt;" style="connectable=0;recursiveResize=0;strokeColor=inherit;fillColor=none;align=center;whiteSpace=wrap;html=1;" vertex="1" parent="4XorLMzXXs-o0dV5hsTX-2">
          <mxGeometry width="60" height="50" as="geometry">
            <mxRectangle width="60" height="50" as="alternateBounds" />
          </mxGeometry>
        </mxCell>
        <mxCell id="4XorLMzXXs-o0dV5hsTX-4" value="Password" style="connectable=0;recursiveResize=0;strokeColor=inherit;fillColor=none;align=center;whiteSpace=wrap;html=1;" vertex="1" parent="4XorLMzXXs-o0dV5hsTX-2">
          <mxGeometry x="60" width="60" height="50" as="geometry">
            <mxRectangle width="60" height="50" as="alternateBounds" />
          </mxGeometry>
        </mxCell>
        <mxCell id="4XorLMzXXs-o0dV5hsTX-5" value="Name" style="connectable=0;recursiveResize=0;strokeColor=inherit;fillColor=none;align=center;whiteSpace=wrap;html=1;" vertex="1" parent="4XorLMzXXs-o0dV5hsTX-2">
          <mxGeometry x="120" width="60" height="50" as="geometry">
            <mxRectangle width="60" height="50" as="alternateBounds" />
          </mxGeometry>
        </mxCell>
        <mxCell id="4XorLMzXXs-o0dV5hsTX-18" value="Quota" style="connectable=0;recursiveResize=0;strokeColor=inherit;fillColor=none;align=center;whiteSpace=wrap;html=1;" vertex="1" parent="4XorLMzXXs-o0dV5hsTX-2">
          <mxGeometry x="180" width="60" height="50" as="geometry">
            <mxRectangle width="60" height="50" as="alternateBounds" />
          </mxGeometry>
        </mxCell>
        <mxCell id="4XorLMzXXs-o0dV5hsTX-29" value="Office Room" style="connectable=0;recursiveResize=0;strokeColor=inherit;fillColor=none;align=center;whiteSpace=wrap;html=1;" vertex="1" parent="4XorLMzXXs-o0dV5hsTX-2">
          <mxGeometry x="240" width="60" height="50" as="geometry">
            <mxRectangle width="60" height="50" as="alternateBounds" />
          </mxGeometry>
        </mxCell>
        <mxCell id="4XorLMzXXs-o0dV5hsTX-101" value="email" style="connectable=0;recursiveResize=0;strokeColor=inherit;fillColor=none;align=center;whiteSpace=wrap;html=1;" vertex="1" parent="4XorLMzXXs-o0dV5hsTX-2">
          <mxGeometry x="300" width="60" height="50" as="geometry">
            <mxRectangle width="60" height="50" as="alternateBounds" />
          </mxGeometry>
        </mxCell>
        <mxCell id="4XorLMzXXs-o0dV5hsTX-36" value="" style="childLayout=tableLayout;recursiveResize=0;shadow=0;fillColor=none;" vertex="1" parent="1">
          <mxGeometry x="80" y="450" width="480" height="50" as="geometry" />
        </mxCell>
        <mxCell id="4XorLMzXXs-o0dV5hsTX-37" value="" style="shape=tableRow;horizontal=0;startSize=0;swimlaneHead=0;swimlaneBody=0;top=0;left=0;bottom=0;right=0;dropTarget=0;collapsible=0;recursiveResize=0;expand=0;fontStyle=0;fillColor=none;strokeColor=inherit;" vertex="1" parent="4XorLMzXXs-o0dV5hsTX-36">
          <mxGeometry width="480" height="50" as="geometry" />
        </mxCell>
        <mxCell id="4XorLMzXXs-o0dV5hsTX-38" value="&lt;u&gt;Room ID&lt;/u&gt;" style="connectable=0;recursiveResize=0;strokeColor=inherit;fillColor=none;align=center;whiteSpace=wrap;html=1;" vertex="1" parent="4XorLMzXXs-o0dV5hsTX-37">
          <mxGeometry width="60" height="50" as="geometry">
            <mxRectangle width="60" height="50" as="alternateBounds" />
          </mxGeometry>
        </mxCell>
        <mxCell id="4XorLMzXXs-o0dV5hsTX-39" value="Building" style="connectable=0;recursiveResize=0;strokeColor=inherit;fillColor=none;align=center;whiteSpace=wrap;html=1;" vertex="1" parent="4XorLMzXXs-o0dV5hsTX-37">
          <mxGeometry x="60" width="60" height="50" as="geometry">
            <mxRectangle width="60" height="50" as="alternateBounds" />
          </mxGeometry>
        </mxCell>
        <mxCell id="4XorLMzXXs-o0dV5hsTX-40" value="Floor" style="connectable=0;recursiveResize=0;strokeColor=inherit;fillColor=none;align=center;whiteSpace=wrap;html=1;" vertex="1" parent="4XorLMzXXs-o0dV5hsTX-37">
          <mxGeometry x="120" width="60" height="50" as="geometry">
            <mxRectangle width="60" height="50" as="alternateBounds" />
          </mxGeometry>
        </mxCell>
        <mxCell id="4XorLMzXXs-o0dV5hsTX-41" value="Zone" style="connectable=0;recursiveResize=0;strokeColor=inherit;fillColor=none;align=center;whiteSpace=wrap;html=1;" vertex="1" parent="4XorLMzXXs-o0dV5hsTX-37">
          <mxGeometry x="180" width="60" height="50" as="geometry">
            <mxRectangle width="60" height="50" as="alternateBounds" />
          </mxGeometry>
        </mxCell>
        <mxCell id="4XorLMzXXs-o0dV5hsTX-42" value="Room Number" style="connectable=0;recursiveResize=0;strokeColor=inherit;fillColor=none;align=center;whiteSpace=wrap;html=1;" vertex="1" parent="4XorLMzXXs-o0dV5hsTX-37">
          <mxGeometry x="240" width="60" height="50" as="geometry">
            <mxRectangle width="60" height="50" as="alternateBounds" />
          </mxGeometry>
        </mxCell>
        <mxCell id="4XorLMzXXs-o0dV5hsTX-43" value="Capacity" style="connectable=0;recursiveResize=0;strokeColor=inherit;fillColor=none;align=center;whiteSpace=wrap;html=1;" vertex="1" parent="4XorLMzXXs-o0dV5hsTX-37">
          <mxGeometry x="300" width="60" height="50" as="geometry">
            <mxRectangle width="60" height="50" as="alternateBounds" />
          </mxGeometry>
        </mxCell>
        <mxCell id="4XorLMzXXs-o0dV5hsTX-44" value="Status" style="connectable=0;recursiveResize=0;strokeColor=inherit;fillColor=none;align=center;whiteSpace=wrap;html=1;" vertex="1" parent="4XorLMzXXs-o0dV5hsTX-37">
          <mxGeometry x="360" width="60" height="50" as="geometry">
            <mxRectangle width="60" height="50" as="alternateBounds" />
          </mxGeometry>
        </mxCell>
        <mxCell id="4XorLMzXXs-o0dV5hsTX-57" value="&amp;nbsp;Location Description" style="connectable=0;recursiveResize=0;strokeColor=inherit;fillColor=none;align=center;whiteSpace=wrap;html=1;" vertex="1" parent="4XorLMzXXs-o0dV5hsTX-37">
          <mxGeometry x="420" width="60" height="50" as="geometry">
            <mxRectangle width="60" height="50" as="alternateBounds" />
          </mxGeometry>
        </mxCell>
        <mxCell id="4XorLMzXXs-o0dV5hsTX-47" value="" style="childLayout=tableLayout;recursiveResize=0;shadow=0;fillColor=none;" vertex="1" parent="1">
          <mxGeometry x="80" y="570" width="420" height="50" as="geometry" />
        </mxCell>
        <mxCell id="4XorLMzXXs-o0dV5hsTX-48" value="" style="shape=tableRow;horizontal=0;startSize=0;swimlaneHead=0;swimlaneBody=0;top=0;left=0;bottom=0;right=0;dropTarget=0;collapsible=0;recursiveResize=0;expand=0;fontStyle=0;fillColor=none;strokeColor=inherit;" vertex="1" parent="4XorLMzXXs-o0dV5hsTX-47">
          <mxGeometry width="420" height="50" as="geometry" />
        </mxCell>
        <mxCell id="4XorLMzXXs-o0dV5hsTX-49" value="&lt;u&gt;Booking ID&lt;/u&gt;" style="connectable=0;recursiveResize=0;strokeColor=inherit;fillColor=none;align=center;whiteSpace=wrap;html=1;" vertex="1" parent="4XorLMzXXs-o0dV5hsTX-48">
          <mxGeometry width="60" height="50" as="geometry">
            <mxRectangle width="60" height="50" as="alternateBounds" />
          </mxGeometry>
        </mxCell>
        <mxCell id="4XorLMzXXs-o0dV5hsTX-50" value="Room ID" style="connectable=0;recursiveResize=0;strokeColor=inherit;fillColor=none;align=center;whiteSpace=wrap;html=1;" vertex="1" parent="4XorLMzXXs-o0dV5hsTX-48">
          <mxGeometry x="60" width="60" height="50" as="geometry">
            <mxRectangle width="60" height="50" as="alternateBounds" />
          </mxGeometry>
        </mxCell>
        <mxCell id="4XorLMzXXs-o0dV5hsTX-51" value="User ID" style="connectable=0;recursiveResize=0;strokeColor=inherit;fillColor=none;align=center;whiteSpace=wrap;html=1;" vertex="1" parent="4XorLMzXXs-o0dV5hsTX-48">
          <mxGeometry x="120" width="60" height="50" as="geometry">
            <mxRectangle width="60" height="50" as="alternateBounds" />
          </mxGeometry>
        </mxCell>
        <mxCell id="4XorLMzXXs-o0dV5hsTX-52" value="Reason" style="connectable=0;recursiveResize=0;strokeColor=inherit;fillColor=none;align=center;whiteSpace=wrap;html=1;" vertex="1" parent="4XorLMzXXs-o0dV5hsTX-48">
          <mxGeometry x="180" width="60" height="50" as="geometry">
            <mxRectangle width="60" height="50" as="alternateBounds" />
          </mxGeometry>
        </mxCell>
        <mxCell id="4XorLMzXXs-o0dV5hsTX-53" value="Time Slot" style="connectable=0;recursiveResize=0;strokeColor=inherit;fillColor=none;align=center;whiteSpace=wrap;html=1;" vertex="1" parent="4XorLMzXXs-o0dV5hsTX-48">
          <mxGeometry x="240" width="60" height="50" as="geometry">
            <mxRectangle width="60" height="50" as="alternateBounds" />
          </mxGeometry>
        </mxCell>
        <mxCell id="4XorLMzXXs-o0dV5hsTX-54" value="Course" style="connectable=0;recursiveResize=0;strokeColor=inherit;fillColor=none;align=center;whiteSpace=wrap;html=1;" vertex="1" parent="4XorLMzXXs-o0dV5hsTX-48">
          <mxGeometry x="300" width="60" height="50" as="geometry">
            <mxRectangle width="60" height="50" as="alternateBounds" />
          </mxGeometry>
        </mxCell>
        <mxCell id="4XorLMzXXs-o0dV5hsTX-81" value="Condition" style="connectable=0;recursiveResize=0;strokeColor=inherit;fillColor=none;align=center;whiteSpace=wrap;html=1;" vertex="1" parent="4XorLMzXXs-o0dV5hsTX-48">
          <mxGeometry x="360" width="60" height="50" as="geometry">
            <mxRectangle width="60" height="50" as="alternateBounds" />
          </mxGeometry>
        </mxCell>
        <mxCell id="4XorLMzXXs-o0dV5hsTX-58" value="" style="childLayout=tableLayout;recursiveResize=0;shadow=0;fillColor=none;" vertex="1" parent="1">
          <mxGeometry x="80" y="680" width="300" height="50" as="geometry" />
        </mxCell>
        <mxCell id="4XorLMzXXs-o0dV5hsTX-59" value="" style="shape=tableRow;horizontal=0;startSize=0;swimlaneHead=0;swimlaneBody=0;top=0;left=0;bottom=0;right=0;dropTarget=0;collapsible=0;recursiveResize=0;expand=0;fontStyle=0;fillColor=none;strokeColor=inherit;" vertex="1" parent="4XorLMzXXs-o0dV5hsTX-58">
          <mxGeometry width="300" height="50" as="geometry" />
        </mxCell>
        <mxCell id="4XorLMzXXs-o0dV5hsTX-60" value="&lt;u&gt;Report ID&lt;/u&gt;" style="connectable=0;recursiveResize=0;strokeColor=inherit;fillColor=none;align=center;whiteSpace=wrap;html=1;" vertex="1" parent="4XorLMzXXs-o0dV5hsTX-59">
          <mxGeometry width="60" height="50" as="geometry">
            <mxRectangle width="60" height="50" as="alternateBounds" />
          </mxGeometry>
        </mxCell>
        <mxCell id="4XorLMzXXs-o0dV5hsTX-61" value="Room ID" style="connectable=0;recursiveResize=0;strokeColor=inherit;fillColor=none;align=center;whiteSpace=wrap;html=1;" vertex="1" parent="4XorLMzXXs-o0dV5hsTX-59">
          <mxGeometry x="60" width="60" height="50" as="geometry">
            <mxRectangle width="60" height="50" as="alternateBounds" />
          </mxGeometry>
        </mxCell>
        <mxCell id="4XorLMzXXs-o0dV5hsTX-62" value="User ID" style="connectable=0;recursiveResize=0;strokeColor=inherit;fillColor=none;align=center;whiteSpace=wrap;html=1;" vertex="1" parent="4XorLMzXXs-o0dV5hsTX-59">
          <mxGeometry x="120" width="60" height="50" as="geometry">
            <mxRectangle width="60" height="50" as="alternateBounds" />
          </mxGeometry>
        </mxCell>
        <mxCell id="4XorLMzXXs-o0dV5hsTX-63" value="Complaint" style="connectable=0;recursiveResize=0;strokeColor=inherit;fillColor=none;align=center;whiteSpace=wrap;html=1;" vertex="1" parent="4XorLMzXXs-o0dV5hsTX-59">
          <mxGeometry x="180" width="60" height="50" as="geometry">
            <mxRectangle width="60" height="50" as="alternateBounds" />
          </mxGeometry>
        </mxCell>
        <mxCell id="4XorLMzXXs-o0dV5hsTX-82" value="Condition" style="connectable=0;recursiveResize=0;strokeColor=inherit;fillColor=none;align=center;whiteSpace=wrap;html=1;" vertex="1" parent="4XorLMzXXs-o0dV5hsTX-59">
          <mxGeometry x="240" width="60" height="50" as="geometry">
            <mxRectangle width="60" height="50" as="alternateBounds" />
          </mxGeometry>
        </mxCell>
        <mxCell id="4XorLMzXXs-o0dV5hsTX-74" value="" style="childLayout=tableLayout;recursiveResize=0;shadow=0;fillColor=none;" vertex="1" parent="1">
          <mxGeometry x="80" y="800" width="300" height="50" as="geometry" />
        </mxCell>
        <mxCell id="4XorLMzXXs-o0dV5hsTX-75" value="" style="shape=tableRow;horizontal=0;startSize=0;swimlaneHead=0;swimlaneBody=0;top=0;left=0;bottom=0;right=0;dropTarget=0;collapsible=0;recursiveResize=0;expand=0;fontStyle=0;fillColor=none;strokeColor=inherit;" vertex="1" parent="4XorLMzXXs-o0dV5hsTX-74">
          <mxGeometry width="300" height="50" as="geometry" />
        </mxCell>
        <mxCell id="4XorLMzXXs-o0dV5hsTX-76" value="&lt;u&gt;Quota Request ID&lt;/u&gt;" style="connectable=0;recursiveResize=0;strokeColor=inherit;fillColor=none;align=center;whiteSpace=wrap;html=1;" vertex="1" parent="4XorLMzXXs-o0dV5hsTX-75">
          <mxGeometry width="60" height="50" as="geometry">
            <mxRectangle width="60" height="50" as="alternateBounds" />
          </mxGeometry>
        </mxCell>
        <mxCell id="4XorLMzXXs-o0dV5hsTX-77" value="User ID" style="connectable=0;recursiveResize=0;strokeColor=inherit;fillColor=none;align=center;whiteSpace=wrap;html=1;" vertex="1" parent="4XorLMzXXs-o0dV5hsTX-75">
          <mxGeometry x="60" width="60" height="50" as="geometry">
            <mxRectangle width="60" height="50" as="alternateBounds" />
          </mxGeometry>
        </mxCell>
        <mxCell id="4XorLMzXXs-o0dV5hsTX-78" value="Number of Hours" style="connectable=0;recursiveResize=0;strokeColor=inherit;fillColor=none;align=center;whiteSpace=wrap;html=1;" vertex="1" parent="4XorLMzXXs-o0dV5hsTX-75">
          <mxGeometry x="120" width="60" height="50" as="geometry">
            <mxRectangle width="60" height="50" as="alternateBounds" />
          </mxGeometry>
        </mxCell>
        <mxCell id="4XorLMzXXs-o0dV5hsTX-79" value="Reason" style="connectable=0;recursiveResize=0;strokeColor=inherit;fillColor=none;align=center;whiteSpace=wrap;html=1;" vertex="1" parent="4XorLMzXXs-o0dV5hsTX-75">
          <mxGeometry x="180" width="60" height="50" as="geometry">
            <mxRectangle width="60" height="50" as="alternateBounds" />
          </mxGeometry>
        </mxCell>
        <mxCell id="4XorLMzXXs-o0dV5hsTX-83" value="Condition" style="connectable=0;recursiveResize=0;strokeColor=inherit;fillColor=none;align=center;whiteSpace=wrap;html=1;" vertex="1" parent="4XorLMzXXs-o0dV5hsTX-75">
          <mxGeometry x="240" width="60" height="50" as="geometry">
            <mxRectangle width="60" height="50" as="alternateBounds" />
          </mxGeometry>
        </mxCell>
        <mxCell id="4XorLMzXXs-o0dV5hsTX-84" value="" style="childLayout=tableLayout;recursiveResize=0;shadow=0;fillColor=none;" vertex="1" parent="1">
          <mxGeometry x="80" y="930" width="360" height="70" as="geometry" />
        </mxCell>
        <mxCell id="4XorLMzXXs-o0dV5hsTX-85" value="" style="shape=tableRow;horizontal=0;startSize=0;swimlaneHead=0;swimlaneBody=0;top=0;left=0;bottom=0;right=0;dropTarget=0;collapsible=0;recursiveResize=0;expand=0;fontStyle=0;fillColor=none;strokeColor=inherit;" vertex="1" parent="4XorLMzXXs-o0dV5hsTX-84">
          <mxGeometry width="360" height="70" as="geometry" />
        </mxCell>
        <mxCell id="4XorLMzXXs-o0dV5hsTX-86" value="&lt;u&gt;Room Change Request ID&lt;/u&gt;" style="connectable=0;recursiveResize=0;strokeColor=inherit;fillColor=none;align=center;whiteSpace=wrap;html=1;" vertex="1" parent="4XorLMzXXs-o0dV5hsTX-85">
          <mxGeometry width="60" height="70" as="geometry">
            <mxRectangle width="60" height="70" as="alternateBounds" />
          </mxGeometry>
        </mxCell>
        <mxCell id="4XorLMzXXs-o0dV5hsTX-87" value="User ID" style="connectable=0;recursiveResize=0;strokeColor=inherit;fillColor=none;align=center;whiteSpace=wrap;html=1;" vertex="1" parent="4XorLMzXXs-o0dV5hsTX-85">
          <mxGeometry x="60" width="60" height="70" as="geometry">
            <mxRectangle width="60" height="70" as="alternateBounds" />
          </mxGeometry>
        </mxCell>
        <mxCell id="4XorLMzXXs-o0dV5hsTX-88" value="Course" style="connectable=0;recursiveResize=0;strokeColor=inherit;fillColor=none;align=center;whiteSpace=wrap;html=1;" vertex="1" parent="4XorLMzXXs-o0dV5hsTX-85">
          <mxGeometry x="120" width="60" height="70" as="geometry">
            <mxRectangle width="60" height="70" as="alternateBounds" />
          </mxGeometry>
        </mxCell>
        <mxCell id="4XorLMzXXs-o0dV5hsTX-89" value="Lecture/ Tutorial" style="connectable=0;recursiveResize=0;strokeColor=inherit;fillColor=none;align=center;whiteSpace=wrap;html=1;" vertex="1" parent="4XorLMzXXs-o0dV5hsTX-85">
          <mxGeometry x="180" width="60" height="70" as="geometry">
            <mxRectangle width="60" height="70" as="alternateBounds" />
          </mxGeometry>
        </mxCell>
        <mxCell id="4XorLMzXXs-o0dV5hsTX-90" value="Reason" style="connectable=0;recursiveResize=0;strokeColor=inherit;fillColor=none;align=center;whiteSpace=wrap;html=1;" vertex="1" parent="4XorLMzXXs-o0dV5hsTX-85">
          <mxGeometry x="240" width="60" height="70" as="geometry">
            <mxRectangle width="60" height="70" as="alternateBounds" />
          </mxGeometry>
        </mxCell>
        <mxCell id="4XorLMzXXs-o0dV5hsTX-92" value="Condition" style="connectable=0;recursiveResize=0;strokeColor=inherit;fillColor=none;align=center;whiteSpace=wrap;html=1;" vertex="1" parent="4XorLMzXXs-o0dV5hsTX-85">
          <mxGeometry x="300" width="60" height="70" as="geometry">
            <mxRectangle width="60" height="70" as="alternateBounds" />
          </mxGeometry>
        </mxCell>
        <mxCell id="4XorLMzXXs-o0dV5hsTX-93" value="" style="childLayout=tableLayout;recursiveResize=0;shadow=0;fillColor=none;" vertex="1" parent="1">
          <mxGeometry x="80" y="1070" width="120" height="70" as="geometry" />
        </mxCell>
        <mxCell id="4XorLMzXXs-o0dV5hsTX-94" value="" style="shape=tableRow;horizontal=0;startSize=0;swimlaneHead=0;swimlaneBody=0;top=0;left=0;bottom=0;right=0;dropTarget=0;collapsible=0;recursiveResize=0;expand=0;fontStyle=0;fillColor=none;strokeColor=inherit;" vertex="1" parent="4XorLMzXXs-o0dV5hsTX-93">
          <mxGeometry width="120" height="70" as="geometry" />
        </mxCell>
        <mxCell id="4XorLMzXXs-o0dV5hsTX-95" value="&lt;u&gt;Course&lt;/u&gt;" style="connectable=0;recursiveResize=0;strokeColor=inherit;fillColor=none;align=center;whiteSpace=wrap;html=1;" vertex="1" parent="4XorLMzXXs-o0dV5hsTX-94">
          <mxGeometry width="60" height="70" as="geometry">
            <mxRectangle width="60" height="70" as="alternateBounds" />
          </mxGeometry>
        </mxCell>
        <mxCell id="4XorLMzXXs-o0dV5hsTX-96" value="&lt;u&gt;User&lt;/u&gt;" style="connectable=0;recursiveResize=0;strokeColor=inherit;fillColor=none;align=center;whiteSpace=wrap;html=1;" vertex="1" parent="4XorLMzXXs-o0dV5hsTX-94">
          <mxGeometry x="60" width="60" height="70" as="geometry">
            <mxRectangle width="60" height="70" as="alternateBounds" />
          </mxGeometry>
        </mxCell>
        <mxCell id="4XorLMzXXs-o0dV5hsTX-102" value="" style="childLayout=tableLayout;recursiveResize=0;shadow=0;fillColor=none;" vertex="1" parent="1">
          <mxGeometry x="80" y="1220" width="180" height="70" as="geometry" />
        </mxCell>
        <mxCell id="4XorLMzXXs-o0dV5hsTX-103" value="" style="shape=tableRow;horizontal=0;startSize=0;swimlaneHead=0;swimlaneBody=0;top=0;left=0;bottom=0;right=0;dropTarget=0;collapsible=0;recursiveResize=0;expand=0;fontStyle=0;fillColor=none;strokeColor=inherit;" vertex="1" parent="4XorLMzXXs-o0dV5hsTX-102">
          <mxGeometry width="180" height="70" as="geometry" />
        </mxCell>
        <mxCell id="4XorLMzXXs-o0dV5hsTX-104" value="&lt;u&gt;Supplies Request ID&lt;/u&gt;" style="connectable=0;recursiveResize=0;strokeColor=inherit;fillColor=none;align=center;whiteSpace=wrap;html=1;" vertex="1" parent="4XorLMzXXs-o0dV5hsTX-103">
          <mxGeometry width="60" height="70" as="geometry">
            <mxRectangle width="60" height="70" as="alternateBounds" />
          </mxGeometry>
        </mxCell>
        <mxCell id="4XorLMzXXs-o0dV5hsTX-105" value="Supplies" style="connectable=0;recursiveResize=0;strokeColor=inherit;fillColor=none;align=center;whiteSpace=wrap;html=1;" vertex="1" parent="4XorLMzXXs-o0dV5hsTX-103">
          <mxGeometry x="60" width="60" height="70" as="geometry">
            <mxRectangle width="60" height="70" as="alternateBounds" />
          </mxGeometry>
        </mxCell>
        <mxCell id="4XorLMzXXs-o0dV5hsTX-106" value="Expected Delivery Time" style="connectable=0;recursiveResize=0;strokeColor=inherit;fillColor=none;align=center;whiteSpace=wrap;html=1;" vertex="1" parent="4XorLMzXXs-o0dV5hsTX-103">
          <mxGeometry x="120" width="60" height="70" as="geometry">
            <mxRectangle width="60" height="70" as="alternateBounds" />
          </mxGeometry>
        </mxCell>
        <mxCell id="4XorLMzXXs-o0dV5hsTX-111" style="edgeStyle=orthogonalEdgeStyle;rounded=0;orthogonalLoop=1;jettySize=auto;html=1;exitX=0.5;exitY=1;exitDx=0;exitDy=0;" edge="1" parent="1" source="4XorLMzXXs-o0dV5hsTX-20">
          <mxGeometry relative="1" as="geometry">
            <mxPoint x="100" y="240" as="targetPoint" />
            <Array as="points">
              <mxPoint x="350" y="380" />
              <mxPoint x="60" y="380" />
              <mxPoint x="60" y="275" />
              <mxPoint x="100" y="275" />
              <mxPoint x="100" y="241" />
              <mxPoint x="100" y="241" />
            </Array>
          </mxGeometry>
        </mxCell>
        <mxCell id="4XorLMzXXs-o0dV5hsTX-112" style="edgeStyle=orthogonalEdgeStyle;rounded=0;orthogonalLoop=1;jettySize=auto;html=1;exitX=0.353;exitY=1.01;exitDx=0;exitDy=0;exitPerimeter=0;entryX=0.029;entryY=1.007;entryDx=0;entryDy=0;entryPerimeter=0;" edge="1" parent="1" source="4XorLMzXXs-o0dV5hsTX-48" target="4XorLMzXXs-o0dV5hsTX-2">
          <mxGeometry relative="1" as="geometry">
            <mxPoint x="185.18918918918916" y="660" as="targetPoint" />
            <Array as="points">
              <mxPoint x="228" y="640" />
              <mxPoint x="40" y="640" />
              <mxPoint x="40" y="270" />
              <mxPoint x="90" y="270" />
              <mxPoint x="90" y="240" />
            </Array>
          </mxGeometry>
        </mxCell>
        <mxCell id="4XorLMzXXs-o0dV5hsTX-113" style="edgeStyle=orthogonalEdgeStyle;rounded=0;orthogonalLoop=1;jettySize=auto;html=1;exitX=0.5;exitY=1;exitDx=0;exitDy=0;entryX=0;entryY=0.75;entryDx=0;entryDy=0;" edge="1" parent="1" source="4XorLMzXXs-o0dV5hsTX-59" target="4XorLMzXXs-o0dV5hsTX-2">
          <mxGeometry relative="1" as="geometry">
            <Array as="points">
              <mxPoint x="230" y="750" />
              <mxPoint x="10" y="750" />
              <mxPoint x="10" y="228" />
            </Array>
          </mxGeometry>
        </mxCell>
        <mxCell id="4XorLMzXXs-o0dV5hsTX-114" style="edgeStyle=orthogonalEdgeStyle;rounded=0;orthogonalLoop=1;jettySize=auto;html=1;exitX=0.25;exitY=1;exitDx=0;exitDy=0;entryX=0;entryY=0.5;entryDx=0;entryDy=0;" edge="1" parent="1" source="4XorLMzXXs-o0dV5hsTX-75" target="4XorLMzXXs-o0dV5hsTX-2">
          <mxGeometry relative="1" as="geometry">
            <Array as="points">
              <mxPoint x="155" y="870" />
              <mxPoint x="-30" y="870" />
              <mxPoint x="-30" y="215" />
            </Array>
          </mxGeometry>
        </mxCell>
        <mxCell id="4XorLMzXXs-o0dV5hsTX-115" style="edgeStyle=orthogonalEdgeStyle;rounded=0;orthogonalLoop=1;jettySize=auto;html=1;exitX=0.25;exitY=1;exitDx=0;exitDy=0;entryX=0;entryY=0.25;entryDx=0;entryDy=0;" edge="1" parent="1" source="4XorLMzXXs-o0dV5hsTX-85" target="4XorLMzXXs-o0dV5hsTX-2">
          <mxGeometry relative="1" as="geometry">
            <Array as="points">
              <mxPoint x="170" y="1020" />
              <mxPoint x="-60" y="1020" />
              <mxPoint x="-60" y="202" />
            </Array>
          </mxGeometry>
        </mxCell>
        <mxCell id="4XorLMzXXs-o0dV5hsTX-116" style="edgeStyle=orthogonalEdgeStyle;rounded=0;orthogonalLoop=1;jettySize=auto;html=1;exitX=0.75;exitY=1;exitDx=0;exitDy=0;entryX=0.03;entryY=-0.007;entryDx=0;entryDy=0;entryPerimeter=0;" edge="1" parent="1" source="4XorLMzXXs-o0dV5hsTX-94" target="4XorLMzXXs-o0dV5hsTX-2">
          <mxGeometry relative="1" as="geometry">
            <Array as="points">
              <mxPoint x="170" y="1160" />
              <mxPoint x="-80" y="1160" />
              <mxPoint x="-80" y="170" />
              <mxPoint x="91" y="170" />
            </Array>
          </mxGeometry>
        </mxCell>
        <mxCell id="4XorLMzXXs-o0dV5hsTX-117" style="edgeStyle=orthogonalEdgeStyle;rounded=0;orthogonalLoop=1;jettySize=auto;html=1;exitX=0.25;exitY=0;exitDx=0;exitDy=0;entryX=0.087;entryY=1.018;entryDx=0;entryDy=0;entryPerimeter=0;" edge="1" parent="1" source="4XorLMzXXs-o0dV5hsTX-20" target="4XorLMzXXs-o0dV5hsTX-2">
          <mxGeometry relative="1" as="geometry" />
        </mxCell>
        <mxCell id="4XorLMzXXs-o0dV5hsTX-118" style="edgeStyle=orthogonalEdgeStyle;rounded=0;orthogonalLoop=1;jettySize=auto;html=1;entryX=0.115;entryY=1.015;entryDx=0;entryDy=0;entryPerimeter=0;" edge="1" parent="1" target="4XorLMzXXs-o0dV5hsTX-2">
          <mxGeometry relative="1" as="geometry">
            <mxPoint x="290" y="310" as="sourcePoint" />
            <Array as="points">
              <mxPoint x="290" y="260" />
              <mxPoint x="120" y="260" />
              <mxPoint x="120" y="244" />
              <mxPoint x="121" y="244" />
            </Array>
          </mxGeometry>
        </mxCell>
        <mxCell id="4XorLMzXXs-o0dV5hsTX-119" style="edgeStyle=orthogonalEdgeStyle;rounded=0;orthogonalLoop=1;jettySize=auto;html=1;exitX=0.25;exitY=0;exitDx=0;exitDy=0;entryX=0.068;entryY=1.063;entryDx=0;entryDy=0;entryPerimeter=0;" edge="1" parent="1" source="4XorLMzXXs-o0dV5hsTX-48" target="4XorLMzXXs-o0dV5hsTX-37">
          <mxGeometry relative="1" as="geometry" />
        </mxCell>
        <mxCell id="4XorLMzXXs-o0dV5hsTX-120" style="edgeStyle=orthogonalEdgeStyle;rounded=0;orthogonalLoop=1;jettySize=auto;html=1;exitX=0.25;exitY=1;exitDx=0;exitDy=0;entryX=0.036;entryY=1.042;entryDx=0;entryDy=0;entryPerimeter=0;" edge="1" parent="1" source="4XorLMzXXs-o0dV5hsTX-59" target="4XorLMzXXs-o0dV5hsTX-37">
          <mxGeometry relative="1" as="geometry">
            <Array as="points">
              <mxPoint x="155" y="740" />
              <mxPoint x="60" y="740" />
              <mxPoint x="60" y="520" />
              <mxPoint x="97" y="520" />
            </Array>
          </mxGeometry>
        </mxCell>
        <mxCell id="4XorLMzXXs-o0dV5hsTX-122" style="edgeStyle=orthogonalEdgeStyle;rounded=0;orthogonalLoop=1;jettySize=auto;html=1;exitX=0.25;exitY=0;exitDx=0;exitDy=0;entryX=0.074;entryY=1;entryDx=0;entryDy=0;entryPerimeter=0;" edge="1" parent="1" source="4XorLMzXXs-o0dV5hsTX-94" target="4XorLMzXXs-o0dV5hsTX-20">
          <mxGeometry relative="1" as="geometry">
            <Array as="points">
              <mxPoint x="660" y="1070" />
              <mxPoint x="660" y="410" />
              <mxPoint x="120" y="410" />
            </Array>
          </mxGeometry>
        </mxCell>
        <mxCell id="4XorLMzXXs-o0dV5hsTX-123" value="User" style="text;html=1;align=center;verticalAlign=middle;whiteSpace=wrap;rounded=0;" vertex="1" parent="1">
          <mxGeometry x="100" y="160" width="60" height="30" as="geometry" />
        </mxCell>
        <mxCell id="4XorLMzXXs-o0dV5hsTX-124" value="Course" style="text;html=1;align=center;verticalAlign=middle;whiteSpace=wrap;rounded=0;" vertex="1" parent="1">
          <mxGeometry x="80" y="280" width="60" height="30" as="geometry" />
        </mxCell>
        <mxCell id="4XorLMzXXs-o0dV5hsTX-125" value="Room" style="text;html=1;align=center;verticalAlign=middle;whiteSpace=wrap;rounded=0;" vertex="1" parent="1">
          <mxGeometry x="80" y="420" width="60" height="30" as="geometry" />
        </mxCell>
        <mxCell id="4XorLMzXXs-o0dV5hsTX-126" value="Booking Request" style="text;html=1;align=center;verticalAlign=middle;whiteSpace=wrap;rounded=0;" vertex="1" parent="1">
          <mxGeometry x="80" y="540" width="60" height="30" as="geometry" />
        </mxCell>
        <mxCell id="4XorLMzXXs-o0dV5hsTX-127" value="Report" style="text;html=1;align=center;verticalAlign=middle;whiteSpace=wrap;rounded=0;" vertex="1" parent="1">
          <mxGeometry x="70" y="650" width="60" height="30" as="geometry" />
        </mxCell>
        <mxCell id="4XorLMzXXs-o0dV5hsTX-128" value="Quota Request" style="text;html=1;align=center;verticalAlign=middle;whiteSpace=wrap;rounded=0;" vertex="1" parent="1">
          <mxGeometry x="70" y="770" width="60" height="30" as="geometry" />
        </mxCell>
        <mxCell id="4XorLMzXXs-o0dV5hsTX-129" value="Room Change Request" style="text;html=1;align=center;verticalAlign=middle;whiteSpace=wrap;rounded=0;" vertex="1" parent="1">
          <mxGeometry x="80" y="900" width="130" height="30" as="geometry" />
        </mxCell>
        <mxCell id="4XorLMzXXs-o0dV5hsTX-130" value="User_Courses" style="text;html=1;align=center;verticalAlign=middle;whiteSpace=wrap;rounded=0;" vertex="1" parent="1">
          <mxGeometry x="65" y="1040" width="130" height="30" as="geometry" />
        </mxCell>
        <mxCell id="4XorLMzXXs-o0dV5hsTX-131" value="Supplies Request" style="text;html=1;align=center;verticalAlign=middle;whiteSpace=wrap;rounded=0;" vertex="1" parent="1">
          <mxGeometry x="70" y="1190" width="130" height="30" as="geometry" />
        </mxCell>
      </root>
    </mxGraphModel>
  </diagram>
</mxfile>
